PathFileType	4	(X/Y/Z)	Patient4_TMGait_0pt4_03_left_13.trc.trc
DataRate	CameraRate	NumFrames	NumMarkers	Units	OrigDataRate	OrigDataStartFrame	OrigNumFrames
78.651685393258	78.651685393258	4	33	mm	78.651685393258	53	       141
Frame#	Time	Sacral			L.Shoulder			Chest			R.Shoulder			Neck			R.ASIS			L.ASIS			R.Thigh.Superior			R.Thigh.Lateral			R.Thigh.Inferior			R.Patella			L.Thigh.Superior			L.Thigh.Lateral			L.Thigh.Inferior			L.Patella			L.Shank.Superior			L.Shank.Lateral			L.Shank.Inferior			R.Shank.Superior			R.Shank.Lateral			R.Shank.Inferior			R.Heel			R.Midfoot.Superior			R.Midfoot.Lateral			R.Toe			L.Heel			L.Midfoot.Lateral			L.Midfoot.Superior			L.Toe			L.Elbow			L.Wrist			R.Elbow			R.Wrist			
		X1	Y1	Z1	X2	Y2	Z2	X3	Y3	Z3	X4	Y4	Z4	X5	Y5	Z5	X6	Y6	Z6	X7	Y7	Z7	X8	Y8	Z8	X9	Y9	Z9	X10	Y10	Z10	X11	Y11	Z11	X12	Y12	Z12	X13	Y13	Z13	X14	Y14	Z14	X15	Y15	Z15	X16	Y16	Z16	X17	Y17	Z17	X18	Y18	Z18	X19	Y19	Z19	X20	Y20	Z20	X21	Y21	Z21	X22	Y22	Z22	X23	Y23	Z23	X24	Y24	Z24	X25	Y25	Z25	X26	Y26	Z26	X27	Y27	Z27	X28	Y28	Z28	X29	Y29	Z29	X30	Y30	Z30	X31	Y31	Z31	X32	Y32	Z32	X33	Y33	Z33	

53	17.431142857143	802.341983140912	1005.078477330692	444.187398285147	973.116076547540	1430.456311568505	237.309274593098	1083.426141128591	1366.362531026542	395.626468070260	1008.414366246362	1443.019622369910	572.244980553076	966.019229413117	1496.689924250311	393.049912470000	1037.711022886767	946.523669818728	549.501787595037	1011.312549325072	965.467422490474	276.574061624462	1118.440383282939	771.964230042936	514.601729725679	1081.771319219693	651.024106389620	591.007130069323	1166.164332845627	611.399406199055	506.858945337063	1185.084877615779	499.123073328509	528.730341037105	1066.004392275902	752.650695925217	303.073163390265	976.236099251900	637.008870711466	245.997027539123	1061.852770018649	559.724642619274	306.875255010702	1062.060016817829	490.494228705815	316.669790079768	1034.886387831125	417.897195588890	308.139649553061	943.835813777508	304.650366371173	258.711146813811	994.311452035378	192.792719210813	328.439140586324	1109.224947254502	424.469681656740	540.526495896605	991.802931498116	385.823435376767	609.124327252142	972.754859905931	277.390375486512	561.192410686014	771.794524444025	224.139284911082	547.134861888154	938.066937686264	153.736533998546	577.642113032320	830.881632910860	159.119140651590	615.664732553637	995.638597517133	34.775231957951	596.692958878062	865.857825923155	38.091338212087	373.100805201329	935.251271088469	35.158933966309	288.310889969266	1019.839488678910	96.454102058463	312.562114159457	1146.904018696429	44.909323552097	276.228139240674	973.672951533734	1084.883658498899	101.407797122354	1130.732647249339	873.042101249450	102.045929980166	981.138213151181	1097.009311367080	700.054036864136	1056.913493758138	846.719902932954	701.459510852357	
54	17.443857142857	801.790487761571	1005.518131556735	442.441336961893	975.264707143569	1431.323949350883	237.507957516912	1083.870290389791	1366.562539991201	396.724996327227	1007.232083202186	1442.831834832621	572.799514182161	966.815835943160	1497.057565518271	393.570929937313	1036.391036764780	947.110211880193	549.533865250159	1012.075542694461	965.591983793259	276.459218026322	1118.776899995771	774.259766332543	514.611393305123	1083.709172341997	653.229100797231	591.422718707626	1168.419853637119	614.462339236476	507.206990610136	1189.162933409266	502.863867398830	529.426389809023	1065.206658679194	751.997600931903	303.652860365293	974.783926866690	637.036168306356	245.708620762945	1059.305039936591	559.078204397817	307.146346839222	1058.866044411041	489.890360752789	316.990729566070	1031.427627881803	417.457645683823	308.276233382759	940.052673242149	304.574487089701	258.626346112018	989.777198984146	192.553668010088	328.575799690008	1115.052472903291	426.730688500643	541.204249244120	998.564751983589	384.643875694630	609.268045104371	982.972400283111	275.620977351478	561.410808884918	783.689392505828	215.424238712104	546.554739852177	952.257454273011	151.533370066261	578.079228996195	844.807862540016	152.977347117785	615.645325424509	1014.012054668875	35.015865833653	597.776387191647	860.674438579927	38.056743191246	373.076878688444	930.122882795550	35.145895669880	288.290195124712	1014.701877814869	96.439213206590	312.632167044265	1141.782161255290	44.906250106666	276.243335306229	977.404455708810	1086.420819025621	100.247410186164	1137.885257965777	877.178827130898	103.381150968179	974.879256569857	1097.751286331903	701.120709781968	1043.792157259183	845.698787680276	709.810659516036	
55	17.456571428571	801.289679784892	1005.953964849021	440.760402667837	977.588675109873	1432.075956698408	237.836019348563	1084.429661795440	1366.650292011147	397.961753756338	1006.165987612992	1442.619408288265	573.441596705589	967.721583413494	1497.362017407300	394.177940272544	1035.002538642667	947.540006594196	549.777429417813	1012.870609154250	965.644245859221	276.530302609230	1118.832814824229	776.267944809378	514.949140621320	1085.023330924902	655.155024597037	592.087957145857	1170.088611735583	617.138599054005	507.944330611725	1192.507727734395	506.431641358714	530.521408060361	1064.339854825821	751.328465068118	304.452721797856	973.300387676999	637.066380226606	245.458092618665	1056.652115628622	558.429720896147	307.481120101198	1055.546325757866	489.291782897140	317.328345600992	1027.865975051732	417.022549236899	308.420526418530	936.198341142443	304.489640105408	258.540320859468	985.197005252689	192.314157747543	328.696525614072	1120.516580492950	428.702397779480	542.199116543774	1005.267311181328	382.560238649865	609.614367300100	993.808018559457	273.007322748440	561.803905892642	796.803350876507	204.788634334342	545.826865260866	967.719135533563	148.540116617536	578.741429263889	860.098352009237	145.516790589429	615.734136311215	1034.244991623957	35.135232398405	599.512794622405	855.494858833739	38.022020735312	373.054730182996	924.995847521695	35.125093038841	288.269551779804	1009.567932211811	96.413679176380	312.703772941493	1136.667520155492	44.886956584318	276.261151513968	980.823254359724	1087.795143267673	99.370755787636	1144.695959659437	881.254723384535	105.007041565214	969.012704379023	1098.545240972686	702.328569957196	1031.374387633308	845.230955935477	717.514078580162	
56	17.469285714286	800.845506374609	1006.391063027750	439.154130202235	980.076563616693	1432.695404145565	238.300474872137	1085.111698323558	1366.620123228115	399.333271708835	1005.241232251722	1442.384731647178	574.172728458882	968.746212729170	1497.598337687187	394.869836970843	1033.558947226977	947.820840747602	550.226800091006	1013.691589745181	965.625788531397	276.790819599156	1118.590905555880	777.945112553553	515.610528768592	1085.661938073791	656.752251264090	592.984241561823	1171.119063132055	619.364762300960	509.059842359055	1195.054294963134	509.772110425259	531.976058025448	1063.411620124241	750.643743484149	305.430741654189	971.771244043054	637.098063131158	245.247239540078	1053.889352434690	557.780601010474	307.865470607547	1052.101264566327	488.701169663489	317.671992243047	1024.204160091248	416.595396302955	308.568271625920	932.273148283007	304.399080055199	258.451532140142	980.573000217473	192.078054145030	328.799527977041	1125.563588176423	430.378256716483	543.486125764637	1011.946176743932	379.645031578254	610.194242991797	1005.246211791017	269.692836077028	562.405971770480	811.243052814479	192.550567838050	545.109827463616	984.397015831207	144.940249021665	579.616982501960	876.805148785633	136.981757158096	615.987510485752	1056.128223076863	35.286403964169	601.738969292037	850.323663085352	37.989161490115	373.031827086520	919.871136150840	35.098022518126	288.247388787140	1004.441246979273	96.379044128835	312.772003125977	1131.560713095577	44.849069771459	276.279266928920	983.974074381317	1088.983214755074	98.776291735905	1151.161347061658	885.213945882281	106.921745149322	963.541381536387	1099.364291788513	703.660173186645	1019.754608729562	845.209936932324	724.519852320440	
